<svg width="174" height="177" viewBox="0 0 174 177" fill="none" xmlns="http://www.w3.org/2000/svg">
<path fill-rule="evenodd" clip-rule="evenodd" d="M42.119 14.75H131.881C147.135 14.75 159.5 27.3287 159.5 42.8452V134.155C159.5 149.671 147.135 162.25 131.881 162.25H42.119C26.8655 162.25 14.5 149.671 14.5 134.155V42.8452C14.5 27.3287 26.8655 14.75 42.119 14.75ZM131.881 151.714C141.414 151.714 149.143 143.853 149.143 134.155V42.8452C149.143 33.1474 141.414 25.2857 131.881 25.2857H42.119C32.5856 25.2857 24.8571 33.1474 24.8571 42.8452V134.155C24.8571 143.853 32.5856 151.714 42.119 151.714H131.881Z" fill="black"/>
<path d="M124.976 65.6726H104.262C101.402 65.6726 99.0833 68.0311 99.0833 70.9405C99.0833 73.8498 101.402 76.2083 104.262 76.2083H110.683L86.1024 101.213L72.2929 87.1655C68.6283 83.4506 62.7003 83.4506 59.0357 87.1655L41.0143 104.936C38.995 106.992 38.995 110.324 41.0143 112.381C41.9802 113.376 43.2993 113.933 44.6738 113.926C46.0499 113.941 47.372 113.383 48.3333 112.381L65.3881 95.0321L79.1976 109.08C82.8858 112.803 88.8356 112.803 92.5238 109.08L119.521 81.6167V92.0119C119.521 94.9213 121.84 97.2798 124.7 97.2798C127.56 97.2798 129.879 94.9213 129.879 92.0119V70.9405C129.848 68.1513 127.712 65.856 124.976 65.6726Z" fill="black"/>
</svg>
