<svg width="152" height="159" viewBox="0 0 152 159" fill="none" xmlns="http://www.w3.org/2000/svg">
<path d="M79.4311 114.679C76.9479 112.958 73.7806 112.737 71.101 114.098C68.4215 115.459 66.6281 118.198 66.3844 121.304V121.701C66.7629 126.255 70.4068 129.749 74.7761 129.749C79.1453 129.749 82.7893 126.255 83.1678 121.701V121.304C82.9581 118.613 81.581 116.172 79.4311 114.679Z" fill="black"/>
<path d="M43.0144 95.4C41.0291 96.9644 40.5815 99.8908 42.0011 102.025C43.5143 104.071 46.2865 104.535 48.3344 103.085C63.7812 91.1253 84.8843 91.1253 100.331 103.085C101.136 103.763 102.148 104.116 103.181 104.079C105.069 104.035 106.747 102.811 107.439 100.973C108.131 99.1355 107.701 97.0429 106.348 95.665C87.5919 81.0095 61.8817 80.9019 43.0144 95.4Z" fill="black"/>
<path d="M140.928 50.4163C121.949 35.0638 98.6725 26.6607 74.6811 26.5C50.7004 26.5982 27.4185 34.9568 8.43442 50.2837C6.9593 51.3205 6.16082 53.1319 6.36488 54.9786C6.56894 56.8253 7.74141 58.3984 9.40374 59.0558C11.0661 59.7131 12.9402 59.3449 14.2611 58.1012C31.5756 44.126 52.8116 36.5118 74.6811 36.4375C96.6169 36.5346 117.906 44.2216 135.228 58.3C136.214 59.1225 137.475 59.4947 138.726 59.3326C139.977 59.1706 141.113 58.4879 141.878 57.4388C142.654 56.3802 142.99 55.0397 142.812 53.719C142.633 52.3982 141.954 51.208 140.928 50.4163Z" fill="black"/>
<path d="M74.6811 55.4513C56.9332 55.4621 39.6911 61.6373 25.6611 73.0075C23.583 74.6742 23.1864 77.7857 24.7744 79.9638C25.6841 81.1989 27.0839 81.9311 28.5744 81.9513C29.6495 82.0093 30.7143 81.7076 31.6144 81.09C57.0366 60.4704 92.5789 60.4704 118.001 81.09C120.086 82.5886 122.928 82.1151 124.464 80.0132C126.001 77.9112 125.693 74.9183 123.764 73.2063C109.751 61.733 92.4763 55.4841 74.6811 55.4513Z" fill="black"/>
</svg>
