<svg width="63" height="54" viewBox="0 0 63 54" fill="none" xmlns="http://www.w3.org/2000/svg">
<g clip-path="url(#clip0_20_232)">
<path d="M31.5 0C14.1032 0 0 12.0884 0 27C0 39.6619 10.1707 50.287 23.8909 53.2051V35.2512H17.3956V27H23.8909V23.4446C23.8909 14.2549 28.7431 9.9954 39.2692 9.9954C41.265 9.9954 44.7086 10.3313 46.1173 10.6661V18.1451C45.3739 18.0781 44.0824 18.0446 42.4784 18.0446C37.3136 18.0446 35.3178 19.7219 35.3178 24.0818V27H45.607L43.8392 35.2512H35.3178V53.8024C50.9153 52.1878 63.0013 40.8046 63.0013 27C63 12.0884 48.8968 0 31.5 0Z" fill="white"/>
</g>
<defs>
<clipPath id="clip0_20_232">
<rect width="63" height="54" fill="white"/>
</clipPath>
</defs>
</svg>
