<svg width="58" height="54" viewBox="0 0 58 54" fill="none" xmlns="http://www.w3.org/2000/svg">
<g clip-path="url(#clip0_20_190)">
<path d="M29 4.86211C36.7484 4.86211 37.666 4.89375 40.7133 5.02031C43.5453 5.13633 45.0746 5.5793 46.0941 5.94844C47.4422 6.43359 48.4164 7.02422 49.4246 7.96289C50.4441 8.91211 51.0672 9.80859 51.5883 11.0637C51.9848 12.0129 52.4606 13.4473 52.5852 16.0734C52.7211 18.9211 52.7551 19.7754 52.7551 26.9789C52.7551 34.193 52.7211 35.0473 52.5852 37.8844C52.4606 40.5211 51.9848 41.9449 51.5883 42.8941C51.0672 44.1492 50.4328 45.0563 49.4246 45.9949C48.4051 46.9441 47.4422 47.5242 46.0941 48.0094C45.0746 48.3785 43.534 48.8215 40.7133 48.9375C37.6547 49.0641 36.7371 49.0957 29 49.0957C21.2516 49.0957 20.334 49.0641 17.2867 48.9375C14.4547 48.8215 12.9254 48.3785 11.9059 48.0094C10.5578 47.5242 9.58359 46.9336 8.57539 45.9949C7.55586 45.0457 6.93281 44.1492 6.41172 42.8941C6.01523 41.9449 5.53945 40.5106 5.41484 37.8844C5.27891 35.0367 5.24492 34.1824 5.24492 26.9789C5.24492 19.7648 5.27891 18.9105 5.41484 16.0734C5.53945 13.4367 6.01523 12.0129 6.41172 11.0637C6.93281 9.80859 7.56719 8.90156 8.57539 7.96289C9.59492 7.01367 10.5578 6.43359 11.9059 5.94844C12.9254 5.5793 14.466 5.13633 17.2867 5.02031C20.334 4.89375 21.2516 4.86211 29 4.86211ZM29 0C21.127 0 20.1414 0.0316406 17.0488 0.158203C13.9676 0.284766 11.8492 0.748828 10.0141 1.41328C8.09961 2.10937 6.47969 3.02695 4.87109 4.53516C3.25117 6.03281 2.26563 7.54102 1.51797 9.31289C0.804297 11.032 0.305859 12.9937 0.169922 15.8625C0.0339844 18.7523 0 19.6699 0 27C0 34.3301 0.0339844 35.2477 0.169922 38.127C0.305859 40.9957 0.804297 42.968 1.51797 44.6766C2.26563 46.459 3.25117 47.9672 4.87109 49.4648C6.47969 50.9625 8.09961 51.8906 10.0027 52.5762C11.8492 53.2406 13.9563 53.7047 17.0375 53.8312C20.1301 53.9578 21.1156 53.9895 28.9887 53.9895C36.8617 53.9895 37.8473 53.9578 40.9398 53.8312C44.0211 53.7047 46.1395 53.2406 47.9746 52.5762C49.8777 51.8906 51.4977 50.9625 53.1063 49.4648C54.7148 47.9672 55.7117 46.459 56.4481 44.6871C57.1617 42.968 57.6602 41.0063 57.7961 38.1375C57.932 35.2582 57.966 34.3406 57.966 27.0105C57.966 19.6805 57.932 18.7629 57.7961 15.8836C57.6602 13.0148 57.1617 11.0426 56.4481 9.33398C55.7344 7.54102 54.7488 6.03281 53.1289 4.53516C51.5203 3.0375 49.9004 2.10938 47.9973 1.42383C46.1508 0.759375 44.0438 0.295313 40.9625 0.16875C37.8586 0.0316406 36.8731 0 29 0Z" fill="white"/>
<path d="M29 13.1309C20.7758 13.1309 14.1035 19.343 14.1035 27C14.1035 34.657 20.7758 40.8691 29 40.8691C37.2242 40.8691 43.8965 34.657 43.8965 27C43.8965 19.343 37.2242 13.1309 29 13.1309ZM29 35.9965C23.6645 35.9965 19.3371 31.9676 19.3371 27C19.3371 22.0324 23.6645 18.0035 29 18.0035C34.3355 18.0035 38.6629 22.0324 38.6629 27C38.6629 31.9676 34.3355 35.9965 29 35.9965Z" fill="white"/>
<path d="M47.9633 12.5821C47.9633 14.3751 46.4 15.82 44.4855 15.82C42.5598 15.82 41.0078 14.3646 41.0078 12.5821C41.0078 10.7892 42.5711 9.34424 44.4855 9.34424C46.4 9.34424 47.9633 10.7997 47.9633 12.5821Z" fill="white"/>
</g>
<defs>
<clipPath id="clip0_20_190">
<rect width="58" height="54" fill="white"/>
</clipPath>
</defs>
</svg>
