<svg width="176" height="198" viewBox="0 0 176 198" fill="none" xmlns="http://www.w3.org/2000/svg">
<path fill-rule="evenodd" clip-rule="evenodd" d="M117.333 72.27C117.094 85.7453 107.314 96.5277 95.3334 96.525C83.4957 96.3056 73.9352 85.5865 73.7 72.27V62.9475C73.6986 57.4562 75.6673 52.1966 79.1599 48.3605C82.6526 44.5245 87.3736 42.4366 92.2534 42.57H99.1467C103.963 42.548 108.589 44.6853 112.002 48.5092C115.415 52.3331 117.333 57.5287 117.333 62.9475V72.27ZM92.0334 54.6975C87.9833 54.6975 84.7 58.3911 84.7 62.9475L84.9934 72.27C84.9934 78.8767 89.7541 84.2325 95.6267 84.2325C101.499 84.2325 106.26 78.8767 106.26 72.27V62.9475C106.26 58.3911 102.977 54.6975 98.9267 54.6975H92.0334Z" fill="black"/>
<path fill-rule="evenodd" clip-rule="evenodd" d="M172.187 126.225L172.993 139.095C173.841 143.123 173.013 147.366 170.745 150.624C168.476 153.883 165.013 155.803 161.333 155.842H128.407C125.534 159.287 121.532 161.255 117.333 161.287H73.3334C68.923 161.354 64.7009 159.28 61.7467 155.595C61.0644 155.68 60.3757 155.68 59.6934 155.595H26.0334C22.4545 155.443 19.1193 153.515 16.9255 150.331C14.7316 147.146 13.9045 143.032 14.6667 139.095L15.7667 126.225C16.8368 120.084 21.5718 115.616 27.1334 115.5H58.6667C59.983 115.418 61.3012 115.614 62.5534 116.077C65.3668 112.124 69.6384 109.843 74.1401 109.89H116.527C120.765 109.872 124.803 111.918 127.6 115.5C128.111 115.419 128.629 115.419 129.14 115.5H160.82C166.382 115.616 171.117 120.084 172.187 126.225ZM128.7 143.22H161.92C162.145 142.734 162.171 142.162 161.993 141.652V140.002L161.26 128.287L160.82 127.627H127.6C124.5 127.64 121.541 126.171 119.46 123.585C118.732 122.606 117.661 122.033 116.527 122.017H74.1401C72.9115 122.035 71.7546 122.671 70.9868 123.75C68.8934 126.546 65.8026 128.148 62.5534 128.122C61.2229 128.129 59.9036 127.849 58.6668 127.297H27.5001C27.0601 127.297 27.0601 127.462 27.0601 127.957L26.3267 139.672V141.322C26.1259 141.821 26.1259 142.392 26.3267 142.89H59.9868C60.7673 142.809 61.5528 142.809 62.3334 142.89C65.3136 142.952 68.1338 144.419 70.1068 146.932C70.9159 147.998 72.0884 148.627 73.3334 148.665H117.627C118.874 148.638 120.05 148.006 120.853 146.932C122.915 144.553 125.746 143.213 128.7 143.22Z" fill="black"/>
<path fill-rule="evenodd" clip-rule="evenodd" d="M161.113 84.645C161.113 94.669 153.89 102.795 144.98 102.795C140.689 102.817 136.566 100.914 133.525 97.5082C130.483 94.1021 128.773 89.473 128.773 84.645V77.715C128.773 73.6671 130.203 69.785 132.747 66.9228C135.291 64.0605 138.742 62.4525 142.34 62.4525H147.547C155.039 62.4525 161.113 69.2857 161.113 77.715V84.645ZM140.525 76.0032C140.044 76.5447 139.773 77.2792 139.773 78.045V84.975C140.086 87.9207 142.306 90.1386 144.943 90.1386C147.58 90.1386 149.801 87.9207 150.113 84.975V78.045C150.113 76.4503 148.964 75.1575 147.547 75.1575H142.34C141.659 75.1575 141.007 75.4617 140.525 76.0032Z" fill="black"/>
<path fill-rule="evenodd" clip-rule="evenodd" d="M54.4288 97.5082C51.3874 100.914 47.2649 102.817 42.9734 102.795C38.6946 102.795 34.591 100.883 31.5654 97.479C28.5398 94.0752 26.8401 89.4587 26.8401 84.645V77.715C26.8401 69.2857 32.9141 62.4525 40.4067 62.4525H45.6134C53.1061 62.4525 59.1801 69.2857 59.1801 77.715V84.645C59.1801 89.473 57.4703 94.1021 54.4288 97.5082ZM40.4067 75.1575C38.9892 75.1575 37.8401 76.4503 37.8401 78.045V84.975C38.1525 87.9207 40.3731 90.1386 43.0101 90.1386C45.647 90.1386 47.8677 87.9207 48.1801 84.975V78.045C48.1801 76.4503 47.0309 75.1575 45.6134 75.1575H40.4067Z" fill="black"/>
</svg>
